<?xml version="1.0" encoding="utf-8"?><svg viewBox="0 0 320 320" xmlns="http://www.w3.org/2000/svg"><rect x="0" y="0" width="21" height="21" style="fill: rgb(120, 171, 80);"/><rect x="0" y="20" width="21" height="21" style="fill: rgb(120, 171, 80);"/><rect x="0" y="40" width="21" height="21" style="fill: rgb(91, 142, 53);"/><rect x="0" y="60" width="21" height="21" style="fill: rgb(67, 113, 27);"/><rect x="0" y="80" width="21" height="21" style="fill: rgb(101, 65, 33);"/><rect x="0" y="100" width="21" height="21" style="fill: rgb(110, 77, 38);"/><rect x="0" y="120" width="21" height="21" style="fill: rgb(118, 86, 44);"/><rect x="0" y="140" width="21" height="21" style="fill: rgb(137, 101, 55);"/><rect x="0" y="160" width="21" height="21" style="fill: rgb(126, 92, 48);"/><rect x="0" y="180" width="21" height="21" style="fill: rgb(126, 92, 48);"/><rect x="0" y="200" width="21" height="21" style="fill: rgb(142, 105, 62);"/><rect x="0" y="220" width="21" height="21" style="fill: rgb(142, 105, 62);"/><rect x="0" y="240" width="21" height="21" style="fill: rgb(137, 101, 55);"/><rect x="0" y="260" width="21" height="21" style="fill: rgb(126, 92, 48);"/><rect x="0" y="280" width="21" height="21" style="fill: rgb(118, 86, 44);"/><rect x="0" y="300" width="21" height="20" style="fill: rgb(137, 101, 55);"/><rect x="20" y="0" width="21" height="21" style="fill: rgb(120, 171, 80);"/><rect x="20" y="20" width="21" height="21" style="fill: rgb(142, 184, 98);"/><rect x="20" y="40" width="21" height="21" style="fill: rgb(103, 157, 66);"/><rect x="20" y="60" width="21" height="21" style="fill: rgb(78, 128, 39);"/><rect x="20" y="80" width="21" height="21" style="fill: rgb(90, 54, 28);"/><rect x="20" y="100" width="21" height="21" style="fill: rgb(110, 77, 38);"/><rect x="20" y="120" width="21" height="21" style="fill: rgb(110, 77, 38);"/><rect x="20" y="140" width="21" height="21" style="fill: rgb(126, 92, 48);"/><rect x="20" y="160" width="21" height="21" style="fill: rgb(137, 101, 55);"/><rect x="20" y="180" width="21" height="21" style="fill: rgb(142, 105, 62);"/><rect x="20" y="200" width="21" height="21" style="fill: rgb(153, 114, 67);"/><rect x="20" y="220" width="21" height="21" style="fill: rgb(142, 105, 62);"/><rect x="20" y="240" width="21" height="21" style="fill: rgb(126, 92, 48);"/><rect x="20" y="260" width="21" height="21" style="fill: rgb(118, 86, 44);"/><rect x="20" y="280" width="21" height="21" style="fill: rgb(118, 86, 44);"/><rect x="20" y="300" width="21" height="20" style="fill: rgb(126, 92, 48);"/><rect x="40" y="0" width="21" height="21" style="fill: rgb(120, 171, 80);"/><rect x="40" y="20" width="21" height="21" style="fill: rgb(142, 184, 98);"/><rect x="40" y="40" width="21" height="21" style="fill: rgb(142, 184, 98);"/><rect x="40" y="60" width="21" height="21" style="fill: rgb(103, 157, 66);"/><rect x="40" y="80" width="21" height="21" style="fill: rgb(78, 128, 39);"/><rect x="40" y="100" width="21" height="21" style="fill: rgb(110, 77, 38);"/><rect x="40" y="120" width="21" height="21" style="fill: rgb(110, 77, 38);"/><rect x="40" y="140" width="21" height="21" style="fill: rgb(137, 101, 55);"/><rect x="40" y="160" width="21" height="21" style="fill: rgb(126, 92, 48);"/><rect x="40" y="180" width="21" height="21" style="fill: rgb(142, 105, 62);"/><rect x="40" y="200" width="21" height="21" style="fill: rgb(153, 114, 67);"/><rect x="40" y="220" width="21" height="21" style="fill: rgb(142, 105, 62);"/><rect x="40" y="240" width="21" height="21" style="fill: rgb(110, 77, 38);"/><rect x="40" y="260" width="21" height="21" style="fill: rgb(118, 86, 44);"/><rect x="40" y="280" width="21" height="21" style="fill: rgb(137, 101, 55);"/><rect x="40" y="300" width="21" height="20" style="fill: rgb(118, 86, 44);"/><rect x="60" y="0" width="21" height="21" style="fill: rgb(120, 171, 80);"/><rect x="60" y="20" width="21" height="21" style="fill: rgb(120, 171, 80);"/><rect x="60" y="40" width="21" height="21" style="fill: rgb(103, 157, 66);"/><rect x="60" y="60" width="21" height="21" style="fill: rgb(103, 157, 66);"/><rect x="60" y="80" width="21" height="21" style="fill: rgb(78, 128, 39);"/><rect x="60" y="100" width="21" height="21" style="fill: rgb(101, 65, 33);"/><rect x="60" y="120" width="21" height="21" style="fill: rgb(110, 77, 38);"/><rect x="60" y="140" width="21" height="21" style="fill: rgb(126, 92, 48);"/><rect x="60" y="160" width="21" height="21" style="fill: rgb(137, 101, 55);"/><rect x="60" y="180" width="21" height="21" style="fill: rgb(153, 114, 67);"/><rect x="60" y="200" width="21" height="21" style="fill: rgb(153, 114, 67);"/><rect x="60" y="220" width="21" height="21" style="fill: rgb(137, 101, 55);"/><rect x="60" y="240" width="21" height="21" style="fill: rgb(118, 86, 44);"/><rect x="60" y="260" width="21" height="21" style="fill: rgb(110, 77, 38);"/><rect x="60" y="280" width="21" height="21" style="fill: rgb(126, 92, 48);"/><rect x="60" y="300" width="21" height="20" style="fill: rgb(137, 101, 55);"/><rect x="80" y="0" width="21" height="21" style="fill: rgb(120, 171, 80);"/><rect x="80" y="20" width="21" height="21" style="fill: rgb(103, 157, 66);"/><rect x="80" y="40" width="21" height="21" style="fill: rgb(91, 142, 53);"/><rect x="80" y="60" width="21" height="21" style="fill: rgb(78, 128, 39);"/><rect x="80" y="80" width="21" height="21" style="fill: rgb(90, 54, 28);"/><rect x="80" y="100" width="21" height="21" style="fill: rgb(101, 65, 33);"/><rect x="80" y="120" width="21" height="21" style="fill: rgb(118, 86, 44);"/><rect x="80" y="140" width="21" height="21" style="fill: rgb(126, 92, 48);"/><rect x="80" y="160" width="21" height="21" style="fill: rgb(126, 92, 48);"/><rect x="80" y="180" width="21" height="21" style="fill: rgb(153, 114, 67);"/><rect x="80" y="200" width="21" height="21" style="fill: rgb(153, 114, 67);"/><rect x="80" y="220" width="21" height="21" style="fill: rgb(126, 92, 48);"/><rect x="80" y="240" width="21" height="21" style="fill: rgb(110, 77, 38);"/><rect x="80" y="260" width="21" height="21" style="fill: rgb(118, 86, 44);"/><rect x="80" y="280" width="21" height="21" style="fill: rgb(118, 86, 44);"/><rect x="80" y="300" width="21" height="20" style="fill: rgb(126, 92, 48);"/><rect x="100" y="0" width="21" height="21" style="fill: rgb(120, 171, 80);"/><rect x="100" y="20" width="21" height="21" style="fill: rgb(120, 171, 80);"/><rect x="100" y="40" width="21" height="21" style="fill: rgb(120, 171, 80);"/><rect x="100" y="60" width="21" height="21" style="fill: rgb(91, 142, 53);"/><rect x="100" y="80" width="21" height="21" style="fill: rgb(78, 128, 39);"/><rect x="100" y="100" width="21" height="21" style="fill: rgb(101, 65, 33);"/><rect x="100" y="120" width="21" height="21" style="fill: rgb(118, 86, 44);"/><rect x="100" y="140" width="21" height="21" style="fill: rgb(118, 86, 44);"/><rect x="100" y="160" width="21" height="21" style="fill: rgb(137, 101, 55);"/><rect x="100" y="180" width="21" height="21" style="fill: rgb(142, 105, 62);"/><rect x="100" y="200" width="21" height="21" style="fill: rgb(153, 114, 67);"/><rect x="100" y="220" width="21" height="21" style="fill: rgb(137, 101, 55);"/><rect x="100" y="240" width="21" height="21" style="fill: rgb(118, 86, 44);"/><rect x="100" y="260" width="21" height="21" style="fill: rgb(126, 92, 48);"/><rect x="100" y="280" width="21" height="21" style="fill: rgb(110, 77, 38);"/><rect x="100" y="300" width="21" height="20" style="fill: rgb(126, 92, 48);"/><rect x="120" y="0" width="21" height="21" style="fill: rgb(142, 184, 98);"/><rect x="120" y="20" width="21" height="21" style="fill: rgb(120, 171, 80);"/><rect x="120" y="40" width="21" height="21" style="fill: rgb(103, 157, 66);"/><rect x="120" y="60" width="21" height="21" style="fill: rgb(120, 171, 80);"/><rect x="120" y="80" width="21" height="21" style="fill: rgb(91, 142, 53);"/><rect x="120" y="100" width="21" height="21" style="fill: rgb(101, 65, 33);"/><rect x="120" y="120" width="21" height="21" style="fill: rgb(110, 77, 38);"/><rect x="120" y="140" width="21" height="21" style="fill: rgb(118, 86, 44);"/><rect x="120" y="160" width="21" height="21" style="fill: rgb(126, 92, 48);"/><rect x="120" y="180" width="21" height="21" style="fill: rgb(137, 101, 55);"/><rect x="120" y="200" width="21" height="21" style="fill: rgb(142, 105, 62);"/><rect x="120" y="220" width="21" height="21" style="fill: rgb(142, 105, 62);"/><rect x="120" y="240" width="21" height="21" style="fill: rgb(167, 127, 79);"/><rect x="120" y="260" width="21" height="21" style="fill: rgb(101, 70, 33);"/><rect x="120" y="280" width="21" height="21" style="fill: rgb(126, 92, 48);"/><rect x="120" y="300" width="21" height="20" style="fill: rgb(118, 86, 44);"/><rect x="140" y="0" width="21" height="21" style="fill: rgb(120, 171, 80);"/><rect x="140" y="20" width="21" height="21" style="fill: rgb(142, 184, 98);"/><rect x="140" y="40" width="21" height="21" style="fill: rgb(120, 171, 80);"/><rect x="140" y="60" width="21" height="21" style="fill: rgb(103, 157, 66);"/><rect x="140" y="80" width="21" height="21" style="fill: rgb(78, 128, 39);"/><rect x="140" y="100" width="21" height="21" style="fill: rgb(90, 54, 28);"/><rect x="140" y="120" width="21" height="21" style="fill: rgb(110, 77, 38);"/><rect x="140" y="140" width="21" height="21" style="fill: rgb(118, 86, 44);"/><rect x="140" y="160" width="21" height="21" style="fill: rgb(137, 101, 55);"/><rect x="140" y="180" width="21" height="21" style="fill: rgb(126, 92, 48);"/><rect x="140" y="200" width="21" height="21" style="fill: rgb(142, 105, 62);"/><rect x="140" y="220" width="21" height="21" style="fill: rgb(153, 114, 67);"/><rect x="140" y="240" width="21" height="21" style="fill: rgb(137, 101, 55);"/><rect x="140" y="260" width="21" height="21" style="fill: rgb(126, 92, 48);"/><rect x="140" y="280" width="21" height="21" style="fill: rgb(118, 86, 44);"/><rect x="140" y="300" width="21" height="20" style="fill: rgb(118, 86, 44);"/><rect x="160" y="0" width="21" height="21" style="fill: rgb(120, 171, 80);"/><rect x="160" y="20" width="21" height="21" style="fill: rgb(103, 157, 66);"/><rect x="160" y="40" width="21" height="21" style="fill: rgb(91, 142, 53);"/><rect x="160" y="60" width="21" height="21" style="fill: rgb(78, 128, 39);"/><rect x="160" y="80" width="21" height="21" style="fill: rgb(67, 113, 27);"/><rect x="160" y="100" width="21" height="21" style="fill: rgb(90, 54, 28);"/><rect x="160" y="120" width="21" height="21" style="fill: rgb(101, 65, 33);"/><rect x="160" y="140" width="21" height="21" style="fill: rgb(126, 92, 48);"/><rect x="160" y="160" width="21" height="21" style="fill: rgb(126, 92, 48);"/><rect x="160" y="180" width="21" height="21" style="fill: rgb(137, 101, 55);"/><rect x="160" y="200" width="21" height="21" style="fill: rgb(126, 92, 48);"/><rect x="160" y="220" width="21" height="21" style="fill: rgb(153, 114, 67);"/><rect x="160" y="240" width="21" height="21" style="fill: rgb(142, 105, 62);"/><rect x="160" y="260" width="21" height="21" style="fill: rgb(137, 101, 55);"/><rect x="160" y="280" width="21" height="21" style="fill: rgb(118, 86, 44);"/><rect x="160" y="300" width="21" height="20" style="fill: rgb(126, 92, 48);"/><rect x="180" y="0" width="21" height="21" style="fill: rgb(120, 171, 80);"/><rect x="180" y="20" width="21" height="21" style="fill: rgb(120, 171, 80);"/><rect x="180" y="40" width="21" height="21" style="fill: rgb(120, 171, 80);"/><rect x="180" y="60" width="21" height="21" style="fill: rgb(103, 157, 66);"/><rect x="180" y="80" width="21" height="21" style="fill: rgb(91, 142, 53);"/><rect x="180" y="100" width="21" height="21" style="fill: rgb(78, 128, 39);"/><rect x="180" y="120" width="21" height="21" style="fill: rgb(101, 65, 33);"/><rect x="180" y="140" width="21" height="21" style="fill: rgb(118, 86, 44);"/><rect x="180" y="160" width="21" height="21" style="fill: rgb(110, 77, 38);"/><rect x="180" y="180" width="21" height="21" style="fill: rgb(137, 101, 55);"/><rect x="180" y="200" width="21" height="21" style="fill: rgb(137, 101, 55);"/><rect x="180" y="220" width="21" height="21" style="fill: rgb(153, 114, 67);"/><rect x="180" y="240" width="21" height="21" style="fill: rgb(153, 114, 67);"/><rect x="180" y="260" width="21" height="21" style="fill: rgb(126, 92, 48);"/><rect x="180" y="280" width="21" height="21" style="fill: rgb(137, 101, 55);"/><rect x="180" y="300" width="21" height="20" style="fill: rgb(126, 92, 48);"/><rect x="200" y="0" width="21" height="21" style="fill: rgb(120, 171, 80);"/><rect x="200" y="20" width="21" height="21" style="fill: rgb(142, 184, 98);"/><rect x="200" y="40" width="21" height="21" style="fill: rgb(103, 157, 66);"/><rect x="200" y="60" width="21" height="21" style="fill: rgb(120, 171, 80);"/><rect x="200" y="80" width="21" height="21" style="fill: rgb(103, 157, 66);"/><rect x="200" y="100" width="21" height="21" style="fill: rgb(67, 113, 27);"/><rect x="200" y="120" width="21" height="21" style="fill: rgb(110, 77, 38);"/><rect x="200" y="140" width="21" height="21" style="fill: rgb(118, 86, 44);"/><rect x="200" y="160" width="21" height="21" style="fill: rgb(167, 127, 79);"/><rect x="200" y="180" width="21" height="21" style="fill: rgb(110, 77, 38);"/><rect x="200" y="200" width="21" height="21" style="fill: rgb(137, 101, 55);"/><rect x="200" y="220" width="21" height="21" style="fill: rgb(142, 105, 62);"/><rect x="200" y="240" width="21" height="21" style="fill: rgb(153, 114, 67);"/><rect x="200" y="260" width="21" height="21" style="fill: rgb(142, 105, 62);"/><rect x="200" y="280" width="21" height="21" style="fill: rgb(126, 92, 48);"/><rect x="200" y="300" width="21" height="20" style="fill: rgb(118, 86, 44);"/><rect x="220" y="0" width="21" height="21" style="fill: rgb(142, 184, 98);"/><rect x="220" y="20" width="21" height="21" style="fill: rgb(103, 157, 66);"/><rect x="220" y="40" width="21" height="21" style="fill: rgb(91, 142, 53);"/><rect x="220" y="60" width="21" height="21" style="fill: rgb(78, 128, 39);"/><rect x="220" y="80" width="21" height="21" style="fill: rgb(67, 113, 27);"/><rect x="220" y="100" width="21" height="21" style="fill: rgb(90, 54, 28);"/><rect x="220" y="120" width="21" height="21" style="fill: rgb(110, 77, 38);"/><rect x="220" y="140" width="21" height="21" style="fill: rgb(137, 101, 55);"/><rect x="220" y="160" width="21" height="21" style="fill: rgb(118, 86, 44);"/><rect x="220" y="180" width="21" height="21" style="fill: rgb(137, 101, 55);"/><rect x="220" y="200" width="21" height="21" style="fill: rgb(126, 92, 48);"/><rect x="220" y="220" width="21" height="21" style="fill: rgb(153, 114, 67);"/><rect x="220" y="240" width="21" height="21" style="fill: rgb(142, 105, 62);"/><rect x="220" y="260" width="21" height="21" style="fill: rgb(142, 105, 62);"/><rect x="220" y="280" width="21" height="21" style="fill: rgb(126, 92, 48);"/><rect x="220" y="300" width="21" height="20" style="fill: rgb(137, 101, 55);"/><rect x="240" y="0" width="21" height="21" style="fill: rgb(120, 171, 80);"/><rect x="240" y="20" width="21" height="21" style="fill: rgb(142, 184, 98);"/><rect x="240" y="40" width="21" height="21" style="fill: rgb(120, 171, 80);"/><rect x="240" y="60" width="21" height="21" style="fill: rgb(103, 157, 66);"/><rect x="240" y="80" width="21" height="21" style="fill: rgb(78, 128, 39);"/><rect x="240" y="100" width="21" height="21" style="fill: rgb(101, 65, 33);"/><rect x="240" y="120" width="21" height="21" style="fill: rgb(126, 92, 48);"/><rect x="240" y="140" width="21" height="21" style="fill: rgb(137, 101, 55);"/><rect x="240" y="160" width="21" height="21" style="fill: rgb(126, 92, 48);"/><rect x="240" y="180" width="21" height="21" style="fill: rgb(137, 101, 55);"/><rect x="240" y="200" width="21" height="21" style="fill: rgb(142, 105, 62);"/><rect x="240" y="220" width="21" height="21" style="fill: rgb(137, 101, 55);"/><rect x="240" y="240" width="21" height="21" style="fill: rgb(142, 105, 62);"/><rect x="240" y="260" width="21" height="21" style="fill: rgb(137, 101, 55);"/><rect x="240" y="280" width="21" height="21" style="fill: rgb(137, 101, 55);"/><rect x="240" y="300" width="21" height="20" style="fill: rgb(142, 105, 62);"/><rect x="260" y="0" width="21" height="21" style="fill: rgb(142, 184, 98);"/><rect x="260" y="20" width="21" height="21" style="fill: rgb(120, 171, 80);"/><rect x="260" y="40" width="21" height="21" style="fill: rgb(103, 157, 66);"/><rect x="260" y="60" width="21" height="21" style="fill: rgb(120, 171, 80);"/><rect x="260" y="80" width="21" height="21" style="fill: rgb(91, 142, 53);"/><rect x="260" y="100" width="21" height="21" style="fill: rgb(101, 65, 33);"/><rect x="260" y="120" width="21" height="21" style="fill: rgb(118, 86, 44);"/><rect x="260" y="140" width="21" height="21" style="fill: rgb(137, 101, 55);"/><rect x="260" y="160" width="21" height="21" style="fill: rgb(126, 92, 48);"/><rect x="260" y="180" width="21" height="21" style="fill: rgb(126, 92, 48);"/><rect x="260" y="200" width="21" height="21" style="fill: rgb(142, 105, 62);"/><rect x="260" y="220" width="21" height="21" style="fill: rgb(142, 105, 62);"/><rect x="260" y="240" width="21" height="21" style="fill: rgb(137, 101, 55);"/><rect x="260" y="260" width="21" height="21" style="fill: rgb(126, 92, 48);"/><rect x="260" y="280" width="21" height="21" style="fill: rgb(142, 105, 62);"/><rect x="260" y="300" width="21" height="20" style="fill: rgb(142, 105, 62);"/><rect x="280" y="0" width="21" height="21" style="fill: rgb(120, 171, 80);"/><rect x="280" y="20" width="21" height="21" style="fill: rgb(120, 171, 80);"/><rect x="280" y="40" width="21" height="21" style="fill: rgb(103, 157, 66);"/><rect x="280" y="60" width="21" height="21" style="fill: rgb(91, 142, 53);"/><rect x="280" y="80" width="21" height="21" style="fill: rgb(67, 113, 27);"/><rect x="280" y="100" width="21" height="21" style="fill: rgb(110, 77, 38);"/><rect x="280" y="120" width="21" height="21" style="fill: rgb(118, 86, 44);"/><rect x="280" y="140" width="21" height="21" style="fill: rgb(126, 92, 48);"/><rect x="280" y="160" width="21" height="21" style="fill: rgb(137, 101, 55);"/><rect x="280" y="180" width="21" height="21" style="fill: rgb(126, 92, 48);"/><rect x="280" y="200" width="21" height="21" style="fill: rgb(142, 105, 62);"/><rect x="280" y="220" width="21" height="21" style="fill: rgb(137, 101, 55);"/><rect x="280" y="240" width="21" height="21" style="fill: rgb(126, 92, 48);"/><rect x="280" y="260" width="21" height="21" style="fill: rgb(118, 86, 44);"/><rect x="280" y="280" width="21" height="21" style="fill: rgb(137, 101, 55);"/><rect x="280" y="300" width="21" height="20" style="fill: rgb(137, 101, 55);"/><rect x="300" y="0" width="20" height="21" style="fill: rgb(120, 171, 80);"/><rect x="300" y="20" width="20" height="21" style="fill: rgb(103, 157, 66);"/><rect x="300" y="40" width="20" height="21" style="fill: rgb(91, 142, 53);"/><rect x="300" y="60" width="20" height="21" style="fill: rgb(78, 128, 39);"/><rect x="300" y="80" width="20" height="21" style="fill: rgb(101, 65, 33);"/><rect x="300" y="100" width="20" height="21" style="fill: rgb(110, 77, 38);"/><rect x="300" y="120" width="20" height="21" style="fill: rgb(118, 86, 44);"/><rect x="300" y="140" width="20" height="21" style="fill: rgb(126, 92, 48);"/><rect x="300" y="160" width="20" height="21" style="fill: rgb(126, 92, 48);"/><rect x="300" y="180" width="20" height="21" style="fill: rgb(137, 101, 55);"/><rect x="300" y="200" width="20" height="21" style="fill: rgb(142, 105, 62);"/><rect x="300" y="220" width="20" height="21" style="fill: rgb(142, 105, 62);"/><rect x="300" y="240" width="20" height="21" style="fill: rgb(137, 101, 55);"/><rect x="300" y="260" width="20" height="21" style="fill: rgb(118, 86, 44);"/><rect x="300" y="280" width="20" height="21" style="fill: rgb(126, 92, 48);"/><rect x="300" y="300" width="20" height="20" style="fill: rgb(137, 101, 55);"/></svg>